<svg xmlns="http://www.w3.org/2000/svg" viewBox="0 0 120 140" fill="none">
  <!-- Tree canopy - organic leaf clusters -->
  <!-- Central top leaf cluster -->
  <ellipse cx="60" cy="18" rx="9" ry="12" fill="white"/>
  <!-- Upper left cluster -->
  <ellipse cx="42" cy="22" rx="10" ry="13" fill="white" transform="rotate(-15 42 22)"/>
  <!-- Upper right cluster -->
  <ellipse cx="78" cy="22" rx="10" ry="13" fill="white" transform="rotate(15 78 22)"/>
  <!-- Mid left cluster -->
  <ellipse cx="28" cy="34" rx="11" ry="14" fill="white" transform="rotate(-20 28 34)"/>
  <!-- Mid right cluster -->
  <ellipse cx="92" cy="34" rx="11" ry="14" fill="white" transform="rotate(20 92 34)"/>
  <!-- Lower left cluster -->
  <ellipse cx="22" cy="50" rx="12" ry="13" fill="white" transform="rotate(-10 22 50)"/>
  <!-- Lower right cluster -->
  <ellipse cx="98" cy="50" rx="12" ry="13" fill="white" transform="rotate(10 98 50)"/>
  <!-- Bottom left cluster -->
  <ellipse cx="32" cy="62" rx="13" ry="11" fill="white" transform="rotate(-5 32 62)"/>
  <!-- Bottom right cluster -->
  <ellipse cx="88" cy="62" rx="13" ry="11" fill="white" transform="rotate(5 88 62)"/>
  <!-- Center fill cluster -->
  <ellipse cx="60" cy="38" rx="18" ry="22" fill="white"/>
  <!-- Lower center cluster -->
  <ellipse cx="60" cy="58" rx="16" ry="14" fill="white"/>
  <!-- Extra fill left -->
  <ellipse cx="44" cy="48" rx="12" ry="14" fill="white"/>
  <!-- Extra fill right -->
  <ellipse cx="76" cy="48" rx="12" ry="14" fill="white"/>

  <!-- Trunk -->
  <path d="M52 68 Q54 72 55 80 L55 95 L65 95 L65 80 Q66 72 68 68 Z" fill="white"/>

  <!-- Base line -->
  <rect x="38" y="95" width="44" height="3.5" rx="1.75" fill="white"/>

  <!-- Wordmark -->
  <text
    x="60"
    y="122"
    text-anchor="middle"
    font-family="Oranienbaum, Georgia, serif"
    font-size="16"
    fill="white"
    letter-spacing="6"
  >SUTAERU</text>
</svg>
